# xmcd CD database file
#
# Track frame offsets:
#	187
#	19117
#	33007
#	38902
#
# Disc length: 770 seconds
#
# Revision: 5
# Processed by: cddbd v1.5.1PL0 Copyright (c) Steve Scherf et al.
# Submitted via: CDex 1.51
#
DISCID=23030004
DTITLE=山崎まさよし - セロリ
DYEAR=1996
DGENRE=JPop
TTITLE0=セロリ
TTITLE1=××しようよ
TTITLE2=mud skiffle track III (instrumental)
TTITLE3=セロリ(KARAOKE)
EXTD=YEAR: 1996
EXTT0=
EXTT1=
EXTT2=
EXTT3=
PLAYORDER=
